<svg width="512" height="512" viewBox="0 0 512 512" fill="none" xmlns="http://www.w3.org/2000/svg">
<g id="logo-512">
<path id="AWC" d="M100.017 274.04L133.297 197.56C133.83 196.493 134.684 195.267 135.857 193.88C137.137 192.387 138.204 191.64 139.057 191.64C140.87 191.64 141.99 191.96 142.417 192.6L174.417 271.8C175.484 274.147 176.284 276.227 176.817 278.04C177.35 279.747 177.99 281.453 178.737 283.16C179.697 285.293 181.03 286.84 182.737 287.8C184.55 288.76 186.257 289.347 187.857 289.56C189.564 289.773 190.63 289.88 191.057 289.88C191.484 290.627 191.697 291.693 191.697 293.08C191.804 294.467 191.697 295.32 191.377 295.64C188.284 295.427 184.87 295.16 181.137 294.84C177.404 294.52 173.83 294.36 170.417 294.36C168.07 294.36 165.404 294.467 162.417 294.68C159.43 294.787 156.55 294.947 153.777 295.16C151.11 295.373 148.817 295.533 146.897 295.64C146.684 295.32 146.524 294.733 146.417 293.88C146.31 292.92 146.31 292.013 146.417 291.16C146.524 290.307 146.684 289.88 146.897 289.88C148.284 289.88 149.884 289.667 151.697 289.24C153.617 288.707 155.11 287.96 156.177 287C157.03 286.253 157.457 285.4 157.457 284.44C157.457 284.12 157.137 283.16 156.497 281.56C155.857 279.853 155.057 277.827 154.097 275.48C153.244 273.133 152.337 270.84 151.377 268.6C150.524 266.253 149.777 264.333 149.137 262.84C148.497 261.347 148.177 260.6 148.177 260.6C148.177 260.6 148.017 260.493 147.697 260.28C147.484 260.067 147.27 259.96 147.057 259.96C144.817 259.853 142.63 259.8 140.497 259.8C138.47 259.8 136.604 259.8 134.897 259.8C134.364 259.8 133.83 259.8 133.297 259.8C132.87 259.8 132.444 259.8 132.017 259.8C128.817 259.8 125.99 259.8 123.537 259.8C121.19 259.8 118.63 259.853 115.857 259.96C115.43 259.96 115.057 260.227 114.737 260.76C114.737 260.76 114.364 261.56 113.617 263.16C112.977 264.76 112.23 266.573 111.377 268.6C110.524 270.627 109.777 272.387 109.137 273.88C108.39 275.8 107.59 277.933 106.737 280.28C105.99 282.627 105.617 284.067 105.617 284.6C105.617 285.88 106.524 286.947 108.337 287.8C110.15 288.547 112.017 289.08 113.937 289.4C115.964 289.72 117.19 289.88 117.617 289.88C118.15 290.413 118.364 291.427 118.257 292.92C118.15 294.413 117.99 295.32 117.777 295.64C115.11 295.32 112.497 295.053 109.937 294.84C107.377 294.52 104.39 294.36 100.977 294.36C97.3502 294.36 94.2569 294.52 91.6969 294.84C89.2435 295.053 86.6302 295.32 83.8569 295.64C83.5369 295.32 83.3235 294.52 83.2169 293.24C83.1102 291.96 83.2169 290.893 83.5369 290.04C84.1769 290.04 85.2435 289.827 86.7369 289.4C88.3369 288.867 89.8835 288.227 91.3769 287.48C92.9769 286.733 94.0435 285.933 94.5769 285.08C95.9635 282.947 96.9769 281.133 97.6169 279.64C98.2569 278.04 99.0569 276.173 100.017 274.04ZM131.377 220.6L118.097 251.32C118.097 251.32 118.097 251.427 118.097 251.64C118.204 251.747 118.31 251.8 118.417 251.8C120.017 251.907 122.15 252.013 124.817 252.12C127.484 252.227 129.67 252.28 131.377 252.28C133.83 252.28 135.91 252.28 137.617 252.28C139.43 252.173 141.51 252.067 143.857 251.96C144.07 251.96 144.177 251.853 144.177 251.64C144.284 251.427 144.337 251.32 144.337 251.32L131.377 220.6ZM199.561 192.6C202.867 192.6 206.601 192.547 210.761 192.44C215.027 192.227 218.654 191.96 221.641 191.64C221.961 192.067 222.121 193.027 222.121 194.52C222.227 195.907 222.067 196.867 221.641 197.4C221.001 197.4 219.881 197.507 218.281 197.72C216.787 197.827 215.401 198.2 214.121 198.84C212.841 199.373 212.201 200.28 212.201 201.56C212.201 202.84 212.574 204.547 213.321 206.68C214.174 208.813 215.027 211 215.881 213.24C217.587 218.04 219.347 222.947 221.161 227.96C222.974 232.867 224.627 237.453 226.121 241.72C227.614 245.88 228.841 249.293 229.801 251.96C230.761 254.52 231.241 255.8 231.241 255.8C231.241 255.8 231.667 254.627 232.521 252.28C233.374 249.933 234.441 246.84 235.721 243C237.107 239.16 238.601 235 240.201 230.52C241.801 225.933 243.401 221.453 245.001 217.08C246.601 212.6 247.987 208.653 249.161 205.24C250.441 201.72 251.401 199.107 252.041 197.4C252.574 195.907 253.267 194.573 254.121 193.4C255.081 192.227 255.987 191.64 256.841 191.64C257.587 191.64 258.227 192.44 258.761 194.04C260.787 199.267 262.974 204.92 265.321 211C267.774 217.08 270.174 223.107 272.521 229.08C274.867 235.053 277.001 240.493 278.921 245.4C280.947 250.307 282.547 254.253 283.721 257.24C284.894 260.12 285.481 261.56 285.481 261.56C285.481 261.56 285.801 260.547 286.441 258.52C287.081 256.387 287.934 253.667 289.001 250.36C290.067 246.947 291.187 243.32 292.361 239.48C293.641 235.533 294.867 231.747 296.041 228.12C297.214 224.493 298.227 221.4 299.081 218.84C299.934 216.173 300.467 214.413 300.681 213.56C301.321 211.533 302.014 209.4 302.761 207.16C303.507 204.813 303.881 202.787 303.881 201.08C303.881 200.12 302.974 199.373 301.161 198.84C299.454 198.307 297.641 197.933 295.721 197.72C293.801 197.507 292.467 197.4 291.721 197.4C291.294 196.867 291.081 195.907 291.081 194.52C291.187 193.027 291.401 192.067 291.721 191.64C295.454 191.96 298.547 192.227 301.001 192.44C303.561 192.547 306.654 192.6 310.281 192.6C313.694 192.6 316.627 192.493 319.081 192.28C321.641 191.96 324.521 191.747 327.721 191.64C328.041 192.067 328.201 193.027 328.201 194.52C328.307 195.907 328.147 196.867 327.721 197.4C327.081 197.4 326.014 197.453 324.521 197.56C323.027 197.667 321.534 197.933 320.041 198.36C318.547 198.68 317.481 199.267 316.841 200.12C315.667 201.72 314.494 203.587 313.321 205.72C312.254 207.853 311.294 210.307 310.441 213.08C307.987 220.44 305.747 227.213 303.721 233.4C301.694 239.48 299.667 245.4 297.641 251.16C295.721 256.92 293.694 262.84 291.561 268.92C289.534 274.893 287.294 281.507 284.841 288.76C284.094 290.68 283.081 292.493 281.801 294.2C280.627 295.907 279.561 296.76 278.601 296.76C277.854 296.76 277.267 296.493 276.841 295.96C276.414 295.533 275.987 295.053 275.561 294.52L249.801 229.72C249.801 229.72 249.374 231 248.521 233.56C247.667 236.12 246.494 239.533 245.001 243.8C243.614 248.067 242.014 252.76 240.201 257.88C238.494 263 236.734 268.227 234.921 273.56C233.107 278.787 231.454 283.64 229.961 288.12C229.747 288.653 229.321 289.667 228.681 291.16C228.041 292.547 227.347 293.827 226.601 295C225.854 296.173 225.161 296.76 224.521 296.76C223.774 296.76 223.187 296.493 222.761 295.96C222.334 295.533 221.907 295.053 221.481 294.52L193.321 215.32C192.574 212.973 191.667 210.68 190.601 208.44C189.534 206.093 188.627 204.12 187.881 202.52C187.241 201.133 186.174 200.12 184.681 199.48C183.294 198.733 181.907 198.2 180.521 197.88C179.134 197.56 178.067 197.4 177.321 197.4C176.894 196.867 176.734 195.907 176.841 194.52C176.841 193.027 177.001 192.067 177.321 191.64C180.414 191.96 184.041 192.227 188.201 192.44C192.467 192.547 196.254 192.6 199.561 192.6ZM381.711 190.84C386.831 190.84 392.377 191.107 398.351 191.64C404.324 192.067 409.604 192.76 414.191 193.72C414.297 194.147 414.617 195.533 415.151 197.88C415.684 200.12 416.271 202.68 416.911 205.56C417.657 208.333 418.244 210.893 418.671 213.24C419.204 215.48 419.471 216.867 419.471 217.4C419.471 217.827 419.044 218.307 418.191 218.84C417.337 219.373 416.431 219.64 415.471 219.64C415.044 219.64 414.617 219.64 414.191 219.64C413.871 219.533 413.551 219.32 413.231 219C412.804 217.507 412.004 215.587 410.831 213.24C409.764 210.787 408.111 208.387 405.871 206.04C403.631 203.587 400.644 201.56 396.911 199.96C393.284 198.36 388.697 197.56 383.151 197.56C375.791 197.56 369.871 199.587 365.391 203.64C360.911 207.587 357.657 212.813 355.631 219.32C353.604 225.72 352.591 232.6 352.591 239.96C352.591 246.04 353.231 252.013 354.511 257.88C355.791 263.747 357.764 269.027 360.431 273.72C363.204 278.413 366.724 282.2 370.991 285.08C375.257 287.853 380.324 289.24 386.191 289.24C390.884 289.24 394.777 288.6 397.871 287.32C400.964 286.04 403.524 284.44 405.551 282.52C407.791 280.493 409.711 278.04 411.311 275.16C412.911 272.28 414.137 269.667 414.991 267.32C415.951 264.973 416.484 263.587 416.591 263.16C418.831 263.16 420.644 263.747 422.031 264.92C422.031 265.347 421.817 266.787 421.391 269.24C420.964 271.587 420.377 274.253 419.631 277.24C418.991 280.12 418.297 282.733 417.551 285.08C416.911 287.32 416.271 288.547 415.631 288.76C410.724 290.467 405.604 292.12 400.271 293.72C394.937 295.32 388.644 296.12 381.391 296.12C374.031 296.12 367.097 294.84 360.591 292.28C354.084 289.72 348.377 286.147 343.471 281.56C338.564 276.973 334.671 271.533 331.791 265.24C329.017 258.947 327.631 252.12 327.631 244.76C327.631 237.187 329.017 230.147 331.791 223.64C334.671 217.133 338.564 211.427 343.471 206.52C348.484 201.613 354.244 197.773 360.751 195C367.257 192.227 374.244 190.84 381.711 190.84Z" fill="#1D283D"/>
<rect id="border" x="35" y="35" width="442" height="442" stroke="#1D283D" stroke-width="10"/>
</g>
</svg>
